<?xml version="1.0" encoding="UTF-8"?>
<!DOCTYPE svg PUBLIC "-//W3C//DTD SVG 1.1//EN" "http://www.w3.org/Graphics/SVG/1.1/DTD/svg11.dtd">
<!-- Creator: CorelDRAW X7 -->
<svg xmlns="http://www.w3.org/2000/svg" xml:space="preserve" width="203.484mm" height="203.484mm" version="1.1" style="shape-rendering:geometricPrecision; text-rendering:geometricPrecision; image-rendering:optimizeQuality; fill-rule:evenodd; clip-rule:evenodd"
viewBox="0 0 20348 20348"
 xmlns:xlink="http://www.w3.org/1999/xlink">
 <defs>
  <style type="text/css">
   <![CDATA[
    .fil7 {fill:#C2B484}
    .fil0 {fill:#CCCCFF}
    .fil1 {fill:url(#id0)}
    .fil4 {fill:url(#id1)}
    .fil5 {fill:url(#id2)}
    .fil3 {fill:url(#id3)}
    .fil6 {fill:url(#id4)}
    .fil2 {fill:url(#id5)}
   ]]>
  </style>
  <linearGradient id="id0" gradientUnits="userSpaceOnUse" x1="12305.7" y1="4782.09" x2="5195.07" y2="19358.8">
   <stop offset="0" style="stop-opacity:1; stop-color:#FDF0C4"/>
   <stop offset="1" style="stop-opacity:1; stop-color:#F2E1A2"/>
  </linearGradient>
  <linearGradient id="id1" gradientUnits="userSpaceOnUse" x1="12258" y1="6134.35" x2="8593.93" y2="7448.23">
   <stop offset="0" style="stop-opacity:1; stop-color:#FFCCCC"/>
   <stop offset="1" style="stop-opacity:1; stop-color:#F0A3A4"/>
  </linearGradient>
  <linearGradient id="id2" gradientUnits="userSpaceOnUse" xlink:href="#id1" x1="15070.7" y1="12285.4" x2="12075.1" y2="13737.2">
  </linearGradient>
  <linearGradient id="id3" gradientUnits="userSpaceOnUse" xlink:href="#id1" x1="15136.9" y1="8195.58" x2="11811.4" y2="9790.6">
  </linearGradient>
  <linearGradient id="id4" gradientUnits="userSpaceOnUse" xlink:href="#id1" x1="8307.83" y1="7537.74" x2="4745.55" y2="8590.56">
  </linearGradient>
  <linearGradient id="id5" gradientUnits="userSpaceOnUse" xlink:href="#id1" x1="10037.8" y1="13521.5" x2="5194.11" y2="14053.1">
  </linearGradient>
 </defs>
 <g id="Layer_x0020_1">
  <metadata id="CorelCorpID_0Corel-Layer"/>
  <g id="_1816572325312">
   <circle class="fil0" cx="10174" cy="10174" r="10174"/>
   <path class="fil1" d="M10020 20346c-4221,-62 -7820,-2695 -9299,-6404 947,-1318 1971,-2590 2728,-4022 714,-1352 420,-3296 1562,-4312 877,-781 2314,-1025 3279,-236 1684,-2751 5162,-1584 4741,1048 3831,-1581 4743,2825 2656,4369 2144,2112 -174,4363 -2818,6052 -1209,773 -2300,2106 -2849,3505z"/>
   <g>
    <path class="fil2" d="M4418 12049c-137,184 -198,290 -238,521 -68,395 52,857 421,1129 453,334 910,445 1380,578 219,62 414,127 639,211 383,143 645,300 937,585 89,86 153,160 230,253 385,465 719,1270 1105,1555l10 7 48 35c173,127 242,171 482,243 405,121 820,-22 1099,-401 395,-536 498,-1574 530,-2245 18,-377 12,-872 -38,-1252 -21,-161 -29,-310 -65,-443l-94 -450c-45,-191 -165,-502 -274,-676 -278,-445 -395,-532 -797,-829 -557,-410 -1487,-575 -2148,-475 -274,42 -272,50 -504,99 -739,154 -2264,932 -2723,1555z"/>
    <path class="fil3" d="M12157 8183l-183 248c-348,472 -488,1145 -306,1658 193,542 614,738 1165,734 813,-5 1570,-483 2048,-1132 295,-401 449,-823 476,-1187 19,-254 -44,-592 -189,-800 -83,-119 -150,-202 -222,-266l-102 -75c-97,-59 -216,-99 -393,-148 -146,-40 -297,-62 -438,-48 -200,19 -119,-3 -346,51 -558,135 -1162,492 -1510,965z"/>
    <path class="fil4" d="M9366 8638c347,255 719,275 1113,130 1137,-418 1819,-2068 1459,-3114 -103,-300 -219,-537 -509,-751 -267,-196 -701,-219 -980,-128 -709,231 -1220,912 -1484,1650 -95,266 -168,716 -142,993 40,439 157,936 543,1220z"/>
    <path class="fil5" d="M12103 12419c-262,356 -402,642 -399,1055 2,248 100,605 372,805 300,221 540,304 899,325 512,30 1004,-158 1436,-434 320,-205 537,-459 776,-782 102,-139 204,-454 235,-632 20,-112 20,-189 20,-301 -3,-558 -536,-970 -1104,-1027 -408,-41 -789,19 -1166,177 -341,142 -774,414 -1069,814z"/>
    <path class="fil6" d="M5648 6684c-164,223 -213,309 -330,558 -62,131 -108,263 -141,397 -83,334 -116,800 -33,1142 96,397 257,809 632,1086 537,395 1252,97 1655,-450 458,-622 579,-1228 508,-1854 -15,-135 -23,-219 -63,-366 -143,-526 -444,-1026 -1037,-1104 -453,-59 -695,95 -1001,392 -71,69 -128,114 -190,199z"/>
   </g>
   <path class="fil7" d="M10235 20348c-20,0 -40,0 -61,0 -118,0 -236,-2 -353,-6 0,-23 5,-46 13,-68 281,-717 700,-1416 1204,-2035 506,-623 1099,-1166 1724,-1566 1301,-831 2518,-1796 3142,-2804 592,-958 632,-1964 -357,-2938l0 0c-7,-7 -14,-15 -20,-23 -65,-89 -47,-214 42,-279 698,-517 1034,-1384 1010,-2211 -11,-387 -100,-764 -268,-1091 -165,-321 -406,-594 -723,-780 -571,-335 -1397,-390 -2480,57 -33,14 -70,19 -108,13 -109,-17 -183,-119 -166,-228 110,-688 -68,-1265 -415,-1678 -233,-277 -542,-483 -891,-601 -352,-119 -744,-150 -1140,-76 -692,129 -1396,579 -1922,1432 -6,12 -13,22 -22,32 -70,86 -195,98 -281,29 -418,-343 -937,-471 -1453,-433 -572,41 -1140,284 -1567,663 -622,555 -790,1443 -959,2342 -125,664 -251,1333 -558,1914 -596,1127 -1350,2149 -2104,3172 -221,300 -443,600 -639,874 -23,31 -53,54 -87,68 -56,-134 -110,-270 -161,-407 197,-272 381,-521 565,-771 746,-1011 1491,-2022 2073,-3122 279,-528 399,-1167 519,-1801 182,-967 362,-1923 1086,-2567 490,-436 1144,-716 1804,-764 542,-39 1088,77 1556,390 578,-849 1331,-1304 2077,-1443 465,-87 926,-51 1341,90 418,141 788,388 1069,723 359,428 569,996 537,1664 1068,-369 1913,-276 2527,84 386,226 678,556 876,942 196,381 300,817 313,1262 25,876 -306,1793 -996,2400 994,1088 920,2205 261,3271 -660,1067 -1923,2073 -3267,2931 -588,376 -1148,890 -1629,1481 -460,567 -847,1204 -1112,1858z"/>
  </g>
 </g>
</svg>
